<?xml version="1.0" encoding="UTF-8"?>
<!DOCTYPE svg PUBLIC "-//W3C//DTD SVG 1.1//EN" "http://www.w3.org/Graphics/SVG/1.1/DTD/svg11.dtd">
<!-- Creator: CorelDRAW -->
<svg xmlns="http://www.w3.org/2000/svg" xml:space="preserve" width="297mm" height="210mm" version="1.1" style="shape-rendering:geometricPrecision; text-rendering:geometricPrecision; image-rendering:optimizeQuality; fill-rule:evenodd; clip-rule:evenodd"
viewBox="0 0 29700 21000"
 xmlns:xlink="http://www.w3.org/1999/xlink"
 xmlns:xodm="http://www.corel.com/coreldraw/odm/2003">
 <defs>
  <style type="text/css">
   <![CDATA[
    .fil0 {fill:#FF7722}
    .fil2 {fill:#2B2A29;fill-rule:nonzero}
    .fil1 {fill:#106BA7;fill-rule:nonzero}
   ]]>
  </style>
 </defs>
 <g id="Layer_x0020_1">
  <metadata id="CorelCorpID_0Corel-Layer"/>
  <g id="_1942055758176">
   <g>
    <path class="fil0" d="M18373.45 8802.49c1.89,38.88 9.84,24.01 84.17,50.39 230.67,81.82 401.95,226.82 532.08,418.28 336.79,495.49 187.17,1275.58 -306.65,1743.07 -174.74,165.44 -338.77,285.28 -567.65,378.29 -108.64,44.15 -205.5,55.9 -222.25,95.07 43.4,36.24 261.73,23.67 334.53,16.67 109.62,-10.53 213.16,-35.37 314.71,-66.37 524.76,-160.18 1038.61,-668.87 1153.8,-1287.97 114.83,-617.39 -193.98,-1108.65 -684.22,-1295.48 -106.49,-40.56 -524.47,-122.89 -638.52,-51.95z"/>
    <path class="fil0" d="M17882.46 10921.27c-5.82,-37.41 -89.8,-59.8 -163.51,-124.7 -301.52,-265.53 -293.02,-766.25 38.44,-1135.97 90.2,-100.58 176.17,-162.54 292.82,-225.81 38.51,-20.87 91.02,-30.22 110.11,-65.99 -62.3,-57.59 -303.22,-47 -408.58,-24.09 -891.21,193.76 -1097.44,1407.71 -293.84,1598.76 98.5,23.42 338.64,36.21 424.56,-22.2z"/>
   </g>
   <path class="fil1" d="M8787.29 11567.22c-327.59,0 -583.36,-121.84 -767.31,-364.7 -183.17,-242.86 -275.14,-544.63 -275.14,-904.48 0,-380.84 103.28,-685.02 309.84,-911.75 206.56,-227.53 463.12,-341.3 770.55,-341.3 330,0 588.99,119.41 779.41,359.05 189.62,238.83 284.82,537.37 284.82,896.42 0,371.95 -102.47,676.94 -307.42,912.55 -204.94,236.41 -469.58,354.21 -794.75,354.21zm29.04 -304.99c188.82,0 346.97,-78.27 475.24,-234.8 127.5,-156.53 191.24,-400.2 191.24,-731.01 0,-331.62 -66.97,-572.86 -200.9,-722.13 -133.95,-149.27 -291.3,-224.31 -470.41,-224.31 -184.76,0 -340.48,75.84 -468.78,226.73 -127.5,150.88 -191.22,390.51 -191.22,717.29 0,346.95 63.72,594.66 191.22,743.92 128.3,149.26 285.62,224.31 473.61,224.31z"/>
   <path class="fil1" d="M10242.36 10885.43l353.42 -73.42c79.06,300.14 328.37,450.22 747.93,450.22 154.92,0 285.64,-34.7 392.96,-104.09 107.31,-70.19 161.37,-167.82 161.37,-294.5 0,-188.81 -136.37,-308.22 -408.27,-359.05l-504.28 -94.4c-196.88,-37.92 -354.21,-111.35 -471.22,-221.89 -116.98,-110.53 -175.09,-256.58 -175.09,-438.11 0,-200.11 79.9,-367.94 238.83,-502.68 159.77,-134.75 374.4,-202.52 644.68,-202.52 518.8,0 839.14,201.72 960.96,604.33l-334.03 73.42c-98.44,-248.5 -300.95,-372.76 -606.75,-372.76 -152.5,0 -277.57,30.66 -375.2,92.79 -97.61,62.12 -146.03,149.26 -146.03,260.61 0,176.7 124.25,287.25 371.95,332.42l464.75 87.96c488.15,87.94 731.83,324.35 731.83,708.41 0,219.47 -90.38,396.98 -271.91,532.53 -181.54,134.74 -423.6,202.52 -724.56,202.52 -566.41,0 -917.4,-227.53 -1051.34,-681.79z"/>
   <path class="fil1" d="M14100.27 11247.71l0 295.3c-131.53,16.14 -245.28,24.21 -341.3,24.21 -463.14,0 -694.71,-241.26 -694.71,-724.56l0 -1439.43 -421.18 0 0 -290.47 421.18 0 14.53 -601.1 353.39 -33.08 0 634.18 532.53 0 0 290.47 -532.53 0 0 1499.95c0,246.09 126.69,368.73 380.84,368.73 84.73,0 180.73,-8.07 287.25,-24.2z"/>
   <path class="fil1" d="M16220.18 10792.64l343.71 71c-62.92,203.32 -186.37,371.15 -368.71,504.29 -183.17,133.13 -398.61,199.29 -646.31,199.29 -326.78,0 -590.62,-114.58 -793.12,-344.52 -201.72,-229.96 -302.58,-530.91 -302.58,-903.68 0,-380.03 104.88,-688.25 314.66,-922.24 209.79,-234.8 472.82,-351.79 789.91,-351.79 311.45,0 563.19,108.12 752.81,325.16 189.62,216.24 287.25,540.59 292.08,972.26l-1737.97 0c0,360.67 75.86,604.34 227.53,731.02 152.5,125.86 313.07,188.8 482.51,188.8 304.98,0 520.42,-156.53 645.48,-469.59zm-24.21 -726.17c-3.22,-134.75 -25,-254.16 -66.15,-358.25 -41.17,-104.88 -111.36,-193.64 -208.98,-267.06 -98.44,-73.43 -216.25,-110.55 -353.41,-110.55 -185.57,0 -342.1,66.17 -471.19,199.3 -129.12,133.14 -200.91,311.45 -217.05,536.56l1316.78 0z"/>
   <path class="fil1" d="M21951.34 11499.44l-348.56 0 0 -1534.64c0,-220.27 -48.41,-375.99 -144.41,-465.55 -96.02,-89.57 -212.22,-134.74 -349.38,-134.74 -188.81,0 -346.95,75.84 -475.24,227.52 -128.28,150.89 -192.83,350.99 -192.83,598.69l0 1308.72 -367.92 0 0 -2386.68 343.71 0 0 440.55c193.66,-338.88 444.58,-508.32 752.8,-508.32 178.3,0 330,45.99 455.07,137.97 125.05,92.79 210.59,196.07 257.38,311.44 46,114.59 69.38,322.75 69.38,623.71l0 1381.33z"/>
   <polygon class="fil2" points="7734.35,12166.89 7791.96,12166.89 7791.96,12467.5 7915.56,12467.5 7915.56,12516.2 7734.35,12516.2 "/>
   <polygon class="fil2" points="8462.58,12166.89 8520.18,12166.89 8520.18,12516.2 8462.58,12516.2 "/>
   <polygon class="fil2" points="9065.27,12166.89 9259.04,12166.89 9259.04,12212.97 9122.88,12212.97 9122.88,12317.72 9231.81,12317.72 9231.81,12363.8 9122.88,12363.8 9122.88,12516.2 9065.27,12516.2 "/>
   <polygon class="fil2" points="9803.02,12166.89 10003.07,12166.89 10003.07,12212.97 9860.64,12212.97 9860.64,12313 9972.18,12313 9972.18,12359.61 9860.64,12359.61 9860.64,12469.07 10005.17,12469.07 10005.17,12516.2 9803.02,12516.2 "/>
   <path class="fil2" d="M11292.94 12245.1l-49.21 17.11c-5.86,-18.59 -13.45,-32.3 -22.96,-41.21 -9.44,-8.81 -22.43,-13.26 -38.84,-13.26 -15.2,0 -26.97,4.54 -35.27,13.53 -8.28,8.98 -12.4,19.29 -12.4,30.89 0,12.92 4.64,23.14 13.97,30.73 9.34,7.68 27.94,16.76 55.77,27.32 23.74,9.08 41.99,17.63 54.82,25.84 12.84,8.2 23.22,19.11 31.16,32.81 7.94,13.8 11.87,29.67 11.87,47.75 0,29.32 -10.38,54.29 -31.08,74.89 -20.67,20.68 -49.74,30.98 -87.01,30.98 -64.42,0 -104.3,-32.47 -119.67,-97.49l51.86 -14.58c8.98,43.29 32.54,64.94 70.52,64.94 18.58,0 32.64,-4.89 42.33,-14.58 9.61,-9.68 14.4,-21.65 14.4,-35.95 0,-10.48 -3.32,-20.17 -9.96,-29.07 -6.71,-8.91 -23.3,-18.42 -49.74,-28.55 -28.02,-10.55 -48.19,-19.46 -60.59,-26.79 -12.38,-7.33 -22.95,-18.16 -31.59,-32.48 -8.71,-14.3 -13.08,-30.63 -13.08,-48.87 0,-27.76 9.68,-51.15 28.98,-70.09 19.36,-18.94 45.02,-28.36 77.06,-28.36 56.83,0 92.97,28.19 108.66,84.49z"/>
   <path class="fil2" d="M12030.96 12398.89l53.43 7.42c-10.92,77.41 -49.05,116.17 -114.34,116.17 -42.42,0 -74.03,-16.32 -94.88,-48.88 -20.79,-32.56 -31.17,-76.11 -31.17,-130.66 0,-58.82 11.01,-103.87 33,-135.29 22.01,-31.34 53.69,-47.04 95.14,-47.04 64.06,0 101.69,39.79 112.77,119.31l-54.46 7.95c-5.76,-53.42 -25.31,-80.13 -58.48,-80.13 -44.43,0 -66.69,46.17 -66.69,138.52 0,86.06 22.35,129.09 66.95,129.09 17.9,0 31.16,-6.55 39.97,-19.73 8.72,-13.09 15.01,-32.03 18.76,-56.73z"/>
   <polygon class="fil2" points="12630.65,12166.89 12688.26,12166.89 12688.26,12516.2 12630.65,12516.2 "/>
   <polygon class="fil2" points="13233.37,12166.89 13433.42,12166.89 13433.42,12212.97 13290.96,12212.97 13290.96,12313 13402.53,12313 13402.53,12359.61 13290.96,12359.61 13290.96,12469.07 13435.51,12469.07 13435.51,12516.2 13233.37,12516.2 "/>
   <polygon class="fil2" points="13990.5,12166.89 14058.41,12166.89 14173.27,12418.79 14173.27,12166.89 14221.44,12166.89 14221.44,12516.2 14167.43,12516.2 14038.67,12236.46 14038.67,12516.2 13990.5,12516.2 "/>
   <path class="fil2" d="M14983.48 12398.89l53.42 7.42c-10.91,77.41 -49.07,116.17 -114.34,116.17 -42.44,0 -74.03,-16.32 -94.89,-48.88 -20.77,-32.56 -31.16,-76.11 -31.16,-130.66 0,-58.82 11,-103.87 32.99,-135.29 22.01,-31.34 53.69,-47.04 95.15,-47.04 64.06,0 101.68,39.79 112.77,119.31l-54.46 7.95c-5.76,-53.42 -25.32,-80.13 -58.5,-80.13 -44.41,0 -66.68,46.17 -66.68,138.52 0,86.06 22.34,129.09 66.94,129.09 17.91,0 31.17,-6.55 40,-19.73 8.71,-13.09 15,-32.03 18.76,-56.73z"/>
   <polygon class="fil2" points="15583.15,12166.89 15783.19,12166.89 15783.19,12212.97 15640.75,12212.97 15640.75,12313 15752.3,12313 15752.3,12359.61 15640.75,12359.61 15640.75,12469.07 15785.28,12469.07 15785.28,12516.2 15583.15,12516.2 "/>
   <path class="fil2" d="M16865.68 12166.89l86.4 0c27.6,0 50.03,2.62 67.22,7.85 17.19,5.15 31.68,16.67 43.46,34.57 11.78,17.81 17.63,39.27 17.63,64.42 0,23.03 -4.8,42.85 -14.31,59.43 -9.6,16.59 -22.43,28.55 -38.49,35.87 -16.15,7.33 -40.95,11 -74.38,11l-29.93 0 0 136.17 -57.6 0 0 -349.31zm57.6 44.51l0 122.56 28.64 0c25.57,0 43.19,-4.81 53.05,-14.41 9.8,-9.6 14.67,-25.23 14.67,-46.88 0,-16.14 -3.21,-29.23 -9.69,-39.27 -6.44,-10.03 -13.6,-16.24 -21.38,-18.51 -7.76,-2.35 -19.98,-3.49 -36.65,-3.49l-28.64 0z"/>
   <polygon class="fil2" points="17594.64,12166.89 17655.39,12166.89 17721.63,12445.59 17788.14,12166.89 17839.19,12166.89 17747.64,12516.72 17684.1,12516.2 "/>
   <polygon class="fil2" points="18359.1,12166.89 18571.74,12166.89 18571.74,12216.12 18494.22,12216.12 18494.22,12516.2 18436.62,12516.2 18436.62,12216.12 18359.1,12216.12 "/>
   <polygon class="fil2" points="19094.48,12450.21 19152.62,12450.21 19152.62,12516.2 19094.48,12516.2 "/>
   <polygon class="fil2" points="20221.01,12166.89 20278.62,12166.89 20278.62,12467.5 20402.22,12467.5 20402.22,12516.2 20221.01,12516.2 "/>
   <polygon class="fil2" points="20873.29,12166.89 21085.93,12166.89 21085.93,12216.12 21008.41,12216.12 21008.41,12516.2 20950.81,12516.2 20950.81,12216.12 20873.29,12216.12 "/>
   <path class="fil2" d="M21641.15 12166.89l78.48 0c38.05,0 68.42,6.72 91.2,20.25 22.7,13.44 39.97,33.51 51.58,60.14 11.71,26.53 17.55,56.12 17.55,88.51 0,34.12 -5.24,64.49 -15.71,91.21 -10.47,26.7 -26.54,48.26 -48.1,64.67 -21.56,16.33 -52.29,24.53 -92.17,24.53l-82.83 0 0 -349.31zm57.6 46.08l0 257.14 24.19 0c33.7,0 58.22,-11.69 73.4,-35 15.28,-23.3 22.87,-54.46 22.87,-93.48 0,-85.8 -32.13,-128.66 -96.27,-128.66l-24.19 0z"/>
  </g>
 </g>
</svg>
